PathFileType	4	(X/Y/Z)	D:\TRACE\v60_Jaco2_6-2-23\BothDRS_Motion1_3-platform.trc
DataRate	CameraRate	NumFrames	NumMarkers	Units	OrigDataRate	OrigDataStartFrame	OrigNumFrames
100.00	100.00	      31	5	mm	100.00	1	      7073
Frame#	Time	Left_Front			Right_Front			Left_Aft			Right_Aft			Post			
		X1	Y1	Z1	X2	Y2	Z2	X3	Y3	Z3	X4	Y4	Z4	X5	Y5	Z5	

1	0.000	-800.61517	8.76811	-638.93610	769.26166	9.89592	-644.37177	-708.80469	7.84858	496.25354	733.14105	7.01658	505.92493	-14.26273	1307.69019	-962.35889	
2	0.010	-800.55963	8.68714	-638.99567	769.32654	9.93073	-644.34259	-708.77704	7.85099	496.27319	733.16663	7.01238	505.89447	-14.26206	1307.70520	-962.35205	
3	0.020	-800.55072	8.71156	-638.97650	769.30029	9.95435	-644.32446	-708.77759	7.90792	496.20987	733.18329	7.03843	505.92136	-14.30414	1307.70923	-962.34088	
4	0.030	-800.59735	8.69950	-638.92810	769.30261	9.93811	-644.33649	-708.77087	7.87668	496.27234	733.12878	7.02618	505.96039	-14.29617	1307.70398	-962.33154	
5	0.040	-800.63824	8.68395	-638.97913	769.26495	9.90665	-644.37897	-708.80688	7.86108	496.26636	733.11249	6.98162	505.91162	-14.27950	1307.68909	-962.36047	
6	0.050	-800.59241	8.69103	-638.97070	769.32098	9.91065	-644.40198	-708.81500	7.85780	496.26660	733.08246	6.99692	505.92731	-14.27804	1307.70508	-962.39185	
7	0.060	-800.59821	8.77761	-638.92639	769.26837	9.94386	-644.35626	-708.86029	7.89892	496.23892	733.13129	7.02375	505.89597	-14.23601	1307.70288	-962.37006	
8	0.070	-800.56116	8.72616	-638.96722	769.30591	9.94798	-644.31738	-708.78387	7.88760	496.23297	733.14362	7.00713	505.89609	-14.27556	1307.75049	-962.38007	
9	0.080	-800.56366	8.71673	-638.98688	769.30579	9.90226	-644.35370	-708.82648	7.91905	496.22223	733.16193	7.02557	505.87808	-14.26581	1307.73584	-962.33264	
10	0.090	-800.60144	8.80147	-638.93036	769.30988	9.94734	-644.34613	-708.81421	7.89264	496.26367	733.13391	6.99973	505.92313	-14.29451	1307.73267	-962.37555	
11	0.100	-800.60773	8.70205	-638.97034	769.28857	9.89218	-644.36792	-708.82819	7.88314	496.26599	733.13049	7.03711	505.92087	-14.29736	1307.69397	-962.37408	
12	0.110	-800.61420	8.76541	-638.94971	769.27142	9.91407	-644.37726	-708.81952	7.83725	496.26239	733.17328	7.03390	505.91284	-14.25362	1307.72363	-962.34656	
13	0.120	-800.59216	8.69409	-639.01080	769.33112	9.89685	-644.33966	-708.83862	7.90756	496.22528	733.15137	7.00386	505.92007	-14.27671	1307.71277	-962.39240	
14	0.130	-800.58820	8.73612	-638.99359	769.30829	9.94673	-644.31476	-708.79889	7.88961	496.25122	733.17468	6.99935	505.88925	-14.21191	1307.69629	-962.37921	
15	0.140	-800.60510	8.68260	-638.97284	769.30554	9.93327	-644.34204	-708.81299	7.86914	496.26434	733.13501	6.99851	505.88501	-14.32643	1307.69812	-962.34235	
16	0.150	-800.65820	8.65773	-638.94397	769.27545	9.95752	-644.35400	-708.76794	7.81481	496.29559	733.09290	7.00719	505.94977	-14.28550	1307.69995	-962.38074	
17	0.160	-800.65955	8.69799	-638.95416	769.32800	9.90473	-644.33490	-708.81012	7.85682	496.26791	733.08716	7.00993	505.92667	-14.25054	1307.66199	-962.35303	
18	0.170	-800.60754	8.73206	-638.99402	769.33856	9.89561	-644.33875	-708.80652	7.86546	496.23923	733.10095	6.98667	505.95731	-14.25682	1307.72217	-962.36786	
19	0.180	-800.58447	8.75666	-638.96906	769.33099	9.91217	-644.34949	-708.82367	7.90656	496.23953	733.14258	7.00020	505.90054	-14.26857	1307.72180	-962.35358	
20	0.190	-800.58234	8.71857	-638.98315	769.34637	9.91123	-644.32764	-708.78394	7.79281	496.27911	733.17621	7.01752	505.92563	-14.24598	1307.73218	-962.36377	
21	0.200	-800.61365	8.70535	-638.96173	769.35388	9.89997	-644.30402	-708.82294	7.85715	496.26901	733.16479	7.02998	505.92709	-14.31365	1307.73047	-962.37354	
22	0.210	-800.60510	8.71288	-638.95709	769.34241	9.89195	-644.36719	-708.81317	7.85571	496.23401	733.14539	6.97527	505.92294	-14.25079	1307.70557	-962.38751	
23	0.220	-800.59021	8.71477	-638.92737	769.30334	9.91477	-644.37970	-708.83984	7.90022	496.26343	733.15509	7.00861	505.91333	-14.30434	1307.73962	-962.36230	
24	0.230	-800.57953	8.70457	-638.98035	769.33008	9.90698	-644.36993	-708.82300	7.87604	496.22760	733.14185	7.02474	505.92468	-14.33193	1307.75452	-962.38208	
25	0.240	-800.57166	8.73085	-639.05145	769.29218	9.91571	-644.37500	-708.80090	7.87662	496.29251	733.21588	7.03096	505.92242	-14.32882	1307.76794	-962.36646	
26	0.250	-800.59351	8.71635	-638.99615	769.29907	9.91625	-644.40540	-708.81592	7.87019	496.26660	733.15588	7.01047	505.90198	-14.28547	1307.75623	-962.37195	
27	0.260	-800.59186	8.67577	-638.93268	769.27423	9.94364	-644.33026	-708.84222	7.87412	496.28766	733.13214	7.03225	505.91095	-14.23730	1307.72339	-962.38086	
28	0.270	-800.60931	8.68109	-638.96350	769.31720	9.90915	-644.33295	-708.81189	7.87497	496.23035	733.12701	6.98674	505.90741	-14.28085	1307.73828	-962.34717	
29	0.280	-800.60699	8.72583	-638.98254	769.33801	9.91475	-644.35938	-708.81555	7.86839	496.27213	733.16974	7.03309	505.92258	-14.31856	1307.72961	-962.38116	
30	0.290	-800.62073	8.78134	-638.99023	769.32642	9.92652	-644.36633	-708.82764	7.91863	496.22742	733.17297	7.01829	505.93121	-14.19090	1307.74414	-962.37872	
31	0.300	-800.60852	8.76800	-638.96143	769.33386	9.92414	-644.34796	-708.80017	7.90407	496.25659	733.10870	7.00165	505.93301	-14.28826	1307.72241	-962.37402	
